<svg _ngcontent-dpw-c276="" width="24" height="24" viewBox="0 0 30 30" fill="none" xmlns="http://www.w3.org/2000/svg"><path _ngcontent-dpw-c276="" fill-rule="evenodd" clip-rule="evenodd" d="M0 21.593V7.649C0 3.442 3.442 0 7.649 0H21.593C25.801 0 29.243 3.442 29.243 7.649V21.593C29.243 25.8 25.801 29.242 21.593 29.242H7.649C3.442 29.242 0 25.8 0 21.593" fill="transparent" class="social-icon-bg"></path><path _ngcontent-dpw-c276="" fill-rule="evenodd" clip-rule="evenodd" d="M13.0938 11.8969H15.8057V13.1409H15.8428C16.2218 12.4249 17.1438 11.6719 18.5208 11.6719C21.3837 11.6719 21.9117 13.5549 21.9117 16.0049V20.9939H19.0858V16.5709C19.0858 15.5149 19.0647 14.1589 17.6157 14.1589C16.1447 14.1589 15.9197 15.3079 15.9197 16.4939V20.9939H13.0938V11.8969Z" fill="white"></path><path _ngcontent-dpw-c276="" fill-rule="evenodd" clip-rule="evenodd" d="M9.90762 7.375C10.8136 7.375 11.5466 8.11 11.5466 9.013C11.5466 9.918 10.8136 10.654 9.90762 10.654C8.99962 10.654 8.26562 9.918 8.26562 9.013C8.26562 8.11 8.99962 7.375 9.90762 7.375V7.375Z" fill="white"></path><path _ngcontent-dpw-c276="" fill-rule="evenodd" clip-rule="evenodd" d="M8.49219 20.9954H11.3242V11.8984H8.49219V20.9954Z" fill="white"></path></svg>