<svg _ngcontent-dpw-c276="" width="24" height="24" viewBox="0 0 30 30" fill="none" xmlns="http://www.w3.org/2000/svg"><path _ngcontent-dpw-c276="" fill-rule="evenodd" clip-rule="evenodd" d="M0 21.8352V7.89119C0 3.68419 3.442 0.242188 7.649 0.242188H21.593C25.8 0.242188 29.243 3.68419 29.243 7.89119V21.8352C29.243 26.0422 25.8 29.4842 21.593 29.4842H7.649C3.442 29.4842 0 26.0422 0 21.8352Z" fill="transparent"></path><path _ngcontent-dpw-c276="" d="M7.74669 8.14453L13.4082 15.7088L7.71094 21.8588H8.99317L13.9811 16.4744L18.0113 21.8588H22.3748L16.3947 13.8691L21.6977 8.14453H20.4155L15.8218 13.1035L12.1102 8.14453H7.74669ZM9.63231 9.0883H11.6369L20.4889 20.9149H18.4843L9.63231 9.0883Z" fill="white"></path></svg>